<mxfile host="app.diagrams.net" modified="2024-06-17T06:37:59.382Z" agent="Mozilla/5.0 (Windows NT 10.0; Win64; x64) AppleWebKit/537.36 (KHTML, like Gecko) Chrome/126.0.0.0 Safari/537.36 Edg/126.0.0.0" etag="N2D_ok0ynp-ZBJrWquBN" version="24.4.13" type="device">
  <diagram name="Seite-1" id="Avr0exlIBsM_cIqsj9CH">
    <mxGraphModel dx="1004" dy="671" grid="1" gridSize="10" guides="1" tooltips="1" connect="1" arrows="1" fold="1" page="1" pageScale="1" pageWidth="827" pageHeight="1169" math="0" shadow="0">
      <root>
        <mxCell id="0" />
        <mxCell id="1" parent="0" />
        <mxCell id="mOFU3DvkG-2ZwX7wHaIq-1" value="" style="rounded=0;whiteSpace=wrap;html=1;" vertex="1" parent="1">
          <mxGeometry x="40" y="140" width="760" height="40" as="geometry" />
        </mxCell>
        <mxCell id="mOFU3DvkG-2ZwX7wHaIq-2" value="" style="rounded=0;whiteSpace=wrap;html=1;" vertex="1" parent="1">
          <mxGeometry x="40" y="200" width="190" height="230" as="geometry" />
        </mxCell>
        <mxCell id="mOFU3DvkG-2ZwX7wHaIq-3" value="" style="rounded=0;whiteSpace=wrap;html=1;" vertex="1" parent="1">
          <mxGeometry x="260" y="200" width="190" height="230" as="geometry" />
        </mxCell>
        <mxCell id="mOFU3DvkG-2ZwX7wHaIq-4" value="" style="rounded=0;whiteSpace=wrap;html=1;" vertex="1" parent="1">
          <mxGeometry x="480" y="200" width="190" height="230" as="geometry" />
        </mxCell>
        <mxCell id="mOFU3DvkG-2ZwX7wHaIq-5" value="" style="rounded=0;whiteSpace=wrap;html=1;" vertex="1" parent="1">
          <mxGeometry x="710" y="200" width="90" height="230" as="geometry" />
        </mxCell>
      </root>
    </mxGraphModel>
  </diagram>
</mxfile>
